<mxfile host="app.diagrams.net" modified="2024-05-22T18:18:20.550Z" agent="Mozilla/5.0 (Macintosh; Intel Mac OS X 10_15_7) AppleWebKit/537.36 (KHTML, like Gecko) Chrome/124.0.0.0 Safari/537.36" etag="Uz7qM7p4cc19gg3TX3hp" version="24.3.1" type="device">
  <diagram name="Page-1" id="p-qMgDkAfOUy3acUy2oS">
    <mxGraphModel dx="1190" dy="744" grid="1" gridSize="10" guides="1" tooltips="1" connect="1" arrows="1" fold="1" page="1" pageScale="1" pageWidth="850" pageHeight="1100" math="0" shadow="0">
      <root>
        <mxCell id="0" />
        <mxCell id="1" parent="0" />
        <mxCell id="qfnQqu_-tLhSwnHhLmFi-5" value="" style="edgeStyle=orthogonalEdgeStyle;rounded=0;orthogonalLoop=1;jettySize=auto;html=1;" edge="1" parent="1" source="qfnQqu_-tLhSwnHhLmFi-1">
          <mxGeometry relative="1" as="geometry">
            <mxPoint x="430.5" y="240" as="targetPoint" />
          </mxGeometry>
        </mxCell>
        <mxCell id="qfnQqu_-tLhSwnHhLmFi-6" value="&lt;h3&gt;Prompt/Query&lt;/h3&gt;" style="edgeLabel;html=1;align=center;verticalAlign=middle;resizable=0;points=[];labelBackgroundColor=none;" vertex="1" connectable="0" parent="qfnQqu_-tLhSwnHhLmFi-5">
          <mxGeometry x="-0.103" y="2" relative="1" as="geometry">
            <mxPoint x="-6" as="offset" />
          </mxGeometry>
        </mxCell>
        <mxCell id="qfnQqu_-tLhSwnHhLmFi-1" value="" style="sketch=0;outlineConnect=0;fontColor=#232F3E;gradientColor=none;fillColor=#232F3D;strokeColor=none;dashed=0;verticalLabelPosition=bottom;verticalAlign=top;align=center;html=1;fontSize=12;fontStyle=0;aspect=fixed;pointerEvents=1;shape=mxgraph.aws4.user;" vertex="1" parent="1">
          <mxGeometry x="394" y="81" width="78" height="78" as="geometry" />
        </mxCell>
        <mxCell id="qfnQqu_-tLhSwnHhLmFi-2" value="&lt;h2&gt;Data Store&lt;/h2&gt;" style="shape=datastore;whiteSpace=wrap;html=1;" vertex="1" parent="1">
          <mxGeometry x="110" y="248" width="110" height="109" as="geometry" />
        </mxCell>
        <mxCell id="qfnQqu_-tLhSwnHhLmFi-13" style="edgeStyle=orthogonalEdgeStyle;rounded=0;orthogonalLoop=1;jettySize=auto;html=1;exitX=0;exitY=0.25;exitDx=0;exitDy=0;entryX=1;entryY=0.3;entryDx=0;entryDy=0;" edge="1" parent="1" source="qfnQqu_-tLhSwnHhLmFi-4" target="qfnQqu_-tLhSwnHhLmFi-2">
          <mxGeometry relative="1" as="geometry" />
        </mxCell>
        <mxCell id="qfnQqu_-tLhSwnHhLmFi-14" value="&lt;h3&gt;Semantic&lt;br&gt;Search&lt;/h3&gt;" style="edgeLabel;html=1;align=center;verticalAlign=middle;resizable=0;points=[];labelBackgroundColor=none;" vertex="1" connectable="0" parent="qfnQqu_-tLhSwnHhLmFi-13">
          <mxGeometry x="-0.0393" y="-1" relative="1" as="geometry">
            <mxPoint as="offset" />
          </mxGeometry>
        </mxCell>
        <mxCell id="qfnQqu_-tLhSwnHhLmFi-18" style="edgeStyle=orthogonalEdgeStyle;rounded=0;orthogonalLoop=1;jettySize=auto;html=1;exitX=1;exitY=0.25;exitDx=0;exitDy=0;" edge="1" parent="1" source="qfnQqu_-tLhSwnHhLmFi-4">
          <mxGeometry relative="1" as="geometry">
            <mxPoint x="660" y="280" as="targetPoint" />
          </mxGeometry>
        </mxCell>
        <mxCell id="qfnQqu_-tLhSwnHhLmFi-19" value="&lt;h3&gt;Query +&amp;nbsp;&lt;br&gt;Search Results&lt;/h3&gt;" style="edgeLabel;html=1;align=center;verticalAlign=middle;resizable=0;points=[];labelBackgroundColor=none;" vertex="1" connectable="0" parent="qfnQqu_-tLhSwnHhLmFi-18">
          <mxGeometry x="0.1773" y="1" relative="1" as="geometry">
            <mxPoint x="-14" y="-2" as="offset" />
          </mxGeometry>
        </mxCell>
        <mxCell id="qfnQqu_-tLhSwnHhLmFi-4" value="&lt;h3&gt;Process&lt;br&gt;Query&lt;/h3&gt;" style="rounded=1;whiteSpace=wrap;html=1;" vertex="1" parent="1">
          <mxGeometry x="380" y="256" width="100" height="95" as="geometry" />
        </mxCell>
        <mxCell id="qfnQqu_-tLhSwnHhLmFi-15" style="edgeStyle=orthogonalEdgeStyle;rounded=0;orthogonalLoop=1;jettySize=auto;html=1;exitX=1;exitY=0.7;exitDx=0;exitDy=0;entryX=-0.01;entryY=0.642;entryDx=0;entryDy=0;entryPerimeter=0;" edge="1" parent="1">
          <mxGeometry relative="1" as="geometry">
            <mxPoint x="220" y="327.5" as="sourcePoint" />
            <mxPoint x="379" y="326.99" as="targetPoint" />
          </mxGeometry>
        </mxCell>
        <mxCell id="qfnQqu_-tLhSwnHhLmFi-16" value="&lt;h3&gt;Search&lt;br&gt;Results&lt;/h3&gt;" style="edgeLabel;html=1;align=center;verticalAlign=middle;resizable=0;points=[];labelBackgroundColor=none;" vertex="1" connectable="0" parent="qfnQqu_-tLhSwnHhLmFi-15">
          <mxGeometry x="-0.0094" y="-1" relative="1" as="geometry">
            <mxPoint as="offset" />
          </mxGeometry>
        </mxCell>
        <mxCell id="qfnQqu_-tLhSwnHhLmFi-20" style="edgeStyle=orthogonalEdgeStyle;rounded=0;orthogonalLoop=1;jettySize=auto;html=1;exitX=0;exitY=0.75;exitDx=0;exitDy=0;" edge="1" parent="1" source="qfnQqu_-tLhSwnHhLmFi-17">
          <mxGeometry relative="1" as="geometry">
            <mxPoint x="490" y="326" as="targetPoint" />
          </mxGeometry>
        </mxCell>
        <mxCell id="qfnQqu_-tLhSwnHhLmFi-21" value="&lt;h3&gt;Query &lt;br&gt;Answer&lt;/h3&gt;" style="edgeLabel;html=1;align=center;verticalAlign=middle;resizable=0;points=[];labelBackgroundColor=none;" vertex="1" connectable="0" parent="qfnQqu_-tLhSwnHhLmFi-20">
          <mxGeometry x="0.1836" y="2" relative="1" as="geometry">
            <mxPoint x="1" y="-2" as="offset" />
          </mxGeometry>
        </mxCell>
        <mxCell id="qfnQqu_-tLhSwnHhLmFi-17" value="&lt;h2&gt;LLM&lt;/h2&gt;" style="shape=hexagon;perimeter=hexagonPerimeter2;whiteSpace=wrap;html=1;fixedSize=1;" vertex="1" parent="1">
          <mxGeometry x="670" y="251.5" width="140" height="104" as="geometry" />
        </mxCell>
      </root>
    </mxGraphModel>
  </diagram>
</mxfile>
